<?xml version="1.0" encoding="UTF-8"?><svg id="Calque_2" xmlns="http://www.w3.org/2000/svg" viewBox="0 0 127.35 18.35"><defs><style>.cls-1{fill:#fff;}</style></defs><g id="Calque_1-2"><path class="cls-1" d="m33.59,10.05v8.02c5.28,0,9.56-4.38,9.56-9.78V.27c-5.28,0-9.56,4.38-9.56,9.78ZM22.39.27v8.02c0,5.4,4.28,9.78,9.56,9.78v-8.02C31.96,4.65,27.68.27,22.39.27Zm-11.2,9.78v8.02c5.28,0,9.56-4.38,9.56-9.78V.27c-5.28,0-9.56,4.38-9.56,9.78Zm-1.63,0v8.02C4.28,18.07,0,13.69,0,8.29V.27C5.28.27,9.56,4.65,9.56,10.05Z"/><path class="cls-1" d="m59.05,18.35c-5.43,0-8.75-3.43-8.75-9.18S53.65,0,59.02,0c3.72,0,6.72,1.54,7.61,4.91l-4.08,1.65c-.51-2.21-1.54-2.92-3.37-2.92-2.59,0-4.13,1.89-4.13,5.53s1.43,5.53,4.05,5.53c2,0,3.1-.92,3.54-2.92l4.21,1.19c-1.05,3.73-4.02,5.37-7.8,5.37Z"/><path class="cls-1" d="m79.65,14.06h-6.15l-1.24,4.02h-4.67L73.84.27h5.56l6.24,17.82h-4.78l-1.21-4.02Zm-.97-3.16l-1.3-4.26-.78-2.81h-.05l-.73,2.78-1.32,4.29h4.18Z"/><path class="cls-1" d="m108.35,18.08h-4.1v-8.18l.13-5.48h-.05l-4.4,13.66h-3.75l-4.4-13.66h-.05l.14,5.48v8.18h-4.13V.27h6.61l2.81,9.07,1,3.78h.05l1.03-3.75,2.78-9.1h6.34v17.82Z"/><path class="cls-1" d="m127.35,6.18c0,3.64-2.46,5.72-6.88,5.72h-3.54v6.18h-4.64V.27h8.18c4.43,0,6.88,2.08,6.88,5.91Zm-4.67-.05c0-1.57-.89-2.35-2.94-2.35h-2.81v4.72h2.81c2.05,0,2.94-.78,2.94-2.38Z"/></g></svg>